<svg width="147" height="253" viewBox="0 0 147 253" fill="none" xmlns="http://www.w3.org/2000/svg">
  <path d="M15.423 225.069C10.961 222.159 7.275 219.249 4.365 216.339C1.455 213.429 0 208.967 0 202.953C0 197.715 1.067 193.544 3.201 190.44C5.529 187.142 8.439 183.65 11.931 179.964C11.931 177.636 12.125 175.308 12.513 172.98C12.901 170.458 13.774 168.13 15.132 165.996C16.49 163.668 18.333 161.534 20.661 159.594C23.183 157.654 26.675 156.005 31.137 154.647L30.264 153.774C28.13 151.64 26.287 149.409 24.735 147.081C23.183 144.559 22.407 141.649 22.407 138.351C22.407 135.635 22.892 133.404 23.862 131.658C25.026 129.718 26.384 127.681 27.936 125.547C24.638 123.025 22.213 120.503 20.661 117.981C19.303 115.265 18.624 111.676 18.624 107.214C18.624 101.588 19.497 97.417 21.243 94.701C22.989 91.791 25.802 88.396 29.682 84.516C30.652 78.502 32.398 73.555 34.92 69.675C37.636 65.601 42.777 63.564 50.343 63.564C53.641 63.564 56.454 64.049 58.782 65.019C61.11 65.989 63.632 67.25 66.348 68.802C69.064 66.668 71.683 65.019 74.205 63.855C76.921 62.691 80.219 62.109 84.099 62.109C90.113 62.109 94.963 63.467 98.649 66.183C102.529 68.705 105.73 72.682 108.252 78.114C108.834 79.472 109.319 81.218 109.707 83.352C110.095 85.486 110.289 87.232 110.289 88.59C113.393 90.142 115.915 91.985 117.855 94.119C119.989 96.253 121.541 98.581 122.511 101.103C123.481 103.431 124.16 105.856 124.548 108.378C124.936 110.9 125.13 113.228 125.13 115.362C125.13 121.57 123.384 125.935 119.892 128.457C116.4 130.785 111.938 132.434 106.506 133.404C106.506 134.374 106.7 135.441 107.088 136.605C107.282 137.187 107.476 137.866 107.67 138.642C107.864 139.224 107.961 139.903 107.961 140.679C107.961 145.141 106.215 149.021 102.723 152.319C99.231 155.423 95.351 157.46 91.083 158.43C90.695 158.43 89.628 158.624 87.882 159.012C86.33 159.206 85.166 159.4 84.39 159.594C84.196 159.594 83.711 159.594 82.935 159.594C82.159 159.594 81.577 159.788 81.189 160.176C82.353 161.728 83.517 163.668 84.681 165.996C86.039 168.324 87.203 170.555 88.173 172.689C91.277 172.689 93.993 172.98 96.321 173.562C98.843 173.95 101.559 175.405 104.469 177.927C105.827 173.465 108.446 169.391 112.326 165.705C116.4 162.019 120.959 160.176 126.003 160.176C129.495 160.176 132.502 160.855 135.024 162.213C137.546 163.571 139.583 165.22 141.135 167.16C142.881 169.1 144.142 171.331 144.918 173.853C145.888 176.181 146.373 178.315 146.373 180.255C146.373 185.687 144.53 190.44 140.844 194.514C137.352 198.394 132.793 202.177 127.167 205.863C131.823 208.385 135.606 211.198 138.516 214.302C141.62 217.212 143.172 221.674 143.172 227.688C143.172 232.732 141.329 237 137.643 240.492C134.151 243.984 129.883 245.73 124.839 245.73C120.571 245.73 116.497 244.469 112.617 241.947C108.931 239.425 105.439 236.903 102.141 234.381C99.231 238.843 96.224 242.432 93.12 245.148C90.016 248.058 85.554 249.513 79.734 249.513C76.63 249.513 73.72 248.931 71.004 247.767C68.482 246.603 65.96 245.245 63.438 243.693C60.528 246.797 57.618 249.028 54.708 250.386C51.992 251.744 48.403 252.423 43.941 252.423C40.061 252.423 36.375 251.647 32.883 250.095C29.391 248.737 26.287 246.797 23.571 244.275C21.049 241.947 19.109 239.231 17.751 236.127C16.393 232.829 16.102 229.434 16.878 225.942L15.423 225.069ZM52.38 197.715C52.38 200.431 52.865 202.662 53.835 204.408C54.999 206.154 57.133 207.027 60.237 207.027C60.819 207.027 61.692 207.027 62.856 207.027C64.214 206.833 65.572 206.639 66.93 206.445C68.288 206.251 69.452 205.96 70.422 205.572C71.586 205.184 72.362 204.796 72.75 204.408C70.616 202.274 68.288 200.528 65.766 199.17C63.438 197.618 60.916 195.872 58.2 193.932C57.812 193.738 57.23 193.544 56.454 193.35C55.678 192.962 55.096 192.768 54.708 192.768C54.32 192.768 53.835 193.059 53.253 193.641C52.865 194.223 52.574 195.581 52.38 197.715ZM73.623 102.849C71.877 103.237 70.422 104.207 69.258 105.759C68.288 107.311 67.609 109.057 67.221 110.997C66.833 112.743 66.736 114.683 66.93 116.817C67.124 118.757 67.415 120.503 67.803 122.055C69.937 120.309 71.683 118.272 73.041 115.944C74.399 113.422 75.078 110.706 75.078 107.796C75.078 107.408 74.884 106.632 74.496 105.468C74.108 104.11 73.817 103.237 73.623 102.849Z" fill="#31795C"/>
  <path d="M61.233 9C61.233 4.02944 65.2624 0 70.233 0H71.233C76.2035 0 80.233 4.02944 80.233 9V29C80.233 33.9706 76.2035 38 71.233 38H70.233C65.2624 38 61.233 33.9706 61.233 29V9Z" fill="#E5CB64"/>
  <path d="M125.068 23.5462C128.583 20.0315 134.281 20.0315 137.796 23.5462L138.287 24.0377C141.802 27.5525 141.802 33.2509 138.287 36.7657L126.685 48.3681C123.17 51.8828 117.472 51.8828 113.957 48.3681L113.465 47.8766C109.951 44.3619 109.951 38.6634 113.465 35.1487L125.068 23.5462Z" fill="#E5CB64"/>
  <path d="M28.4188 35.5618C31.9335 39.0765 31.9335 44.775 28.4188 48.2897L27.9273 48.7812C24.4126 52.2959 18.7141 52.2959 15.1994 48.7812L3.59693 37.1787C0.0822079 33.664 0.0822079 27.9655 3.59693 24.4508L4.08842 23.9593C7.60314 20.4446 13.3016 20.4446 16.8163 23.9593L28.4188 35.5618Z" fill="#E5CB64"/>
</svg>
